<svg xmlns="http://www.w3.org/2000/svg" width="1200" height="360" viewBox="0 0 1200 360" role="img" aria-labelledby="title desc">
  <title id="title">DeepSeekCode logo</title>
  <desc id="desc">A terminal-style DeepSeekCode logo for a DeepSeek-first local coding agent.</desc>
  <defs>
    <linearGradient id="mark" x1="0" x2="1" y1="0" y2="1">
      <stop offset="0" stop-color="#38bdf8"/>
      <stop offset="0.5" stop-color="#22d3ee"/>
      <stop offset="1" stop-color="#22c55e"/>
    </linearGradient>
    <linearGradient id="panel" x1="0" x2="1" y1="0" y2="1">
      <stop offset="0" stop-color="#0b1220"/>
      <stop offset="1" stop-color="#050816"/>
    </linearGradient>
    <filter id="shadow" x="-20%" y="-20%" width="140%" height="140%">
      <feDropShadow dx="0" dy="18" stdDeviation="18" flood-color="#020617" flood-opacity="0.32"/>
    </filter>
  </defs>
  <rect width="1200" height="360" rx="34" fill="#05070d"/>
  <rect x="18" y="18" width="1164" height="324" rx="28" fill="url(#panel)" stroke="#1f2937" stroke-width="2"/>
  <g filter="url(#shadow)">
    <rect x="70" y="74" width="305" height="212" rx="24" fill="#070b12" stroke="#334155" stroke-width="3"/>
    <circle cx="104" cy="106" r="8" fill="#ef4444"/>
    <circle cx="132" cy="106" r="8" fill="#f59e0b"/>
    <circle cx="160" cy="106" r="8" fill="#22c55e"/>
    <path d="M114 168h76l-42 40 42 40h-76l42-40-42-40Z" fill="url(#mark)"/>
    <path d="M226 165h86v24h-86zM226 219h110v24H226z" fill="#e5e7eb"/>
    <path d="M82 134h268" stroke="#1f2937" stroke-width="2"/>
  </g>
  <text x="425" y="155" fill="#f8fafc" font-family="Inter,Segoe UI,Arial,sans-serif" font-size="74" font-weight="800">DeepSeekCode</text>
  <text x="429" y="216" fill="#94a3b8" font-family="Inter,Segoe UI,Arial,sans-serif" font-size="30">DeepSeek-first local coding agent</text>
  <text x="429" y="263" fill="#67e8f9" font-family="Cascadia Mono,Consolas,monospace" font-size="24">cache guard · typed tools · multi-agent · Ink TUI</text>
</svg>
